<svg width="34" height="34" viewBox="0 0 34 34" fill="none" xmlns="http://www.w3.org/2000/svg">
<path d="M16.7849 0C7.51576 0 0 7.51576 0 16.7849C0 26.0541 7.51576 33.5699 16.7849 33.5699C26.0541 33.5699 33.5699 26.0541 33.5699 16.7849C33.5699 7.51576 26.0541 0 16.7849 0ZM20.3218 10.3108H26.0991V12.0342H20.3218V10.3108ZM17.3994 19.3626C17.3994 23.6338 12.9484 23.4989 12.9484 23.4989H5.66492V9.48649H12.9484C15.1664 9.48649 16.9123 10.7079 16.9123 13.2181C16.9123 15.7284 14.7767 15.8858 14.7767 15.8858C17.5942 15.8858 17.3994 19.3626 17.3994 19.3626ZM28.2047 19.1303H20.9437C20.9437 21.7305 23.409 21.5657 23.409 21.5657C25.7394 21.5657 25.657 20.0595 25.657 20.0595H28.1223C28.1223 24.0609 23.3266 23.7837 23.3266 23.7837C17.5792 23.7837 17.9464 18.426 17.9464 18.426C17.9464 18.426 17.9389 13.0458 23.3266 13.0458C28.999 13.0533 28.2047 19.1303 28.2047 19.1303Z" fill="white"/>
</svg>
